<svg xmlns="http://www.w3.org/2000/svg" viewBox="0 0 606.8 609.3">
			<path fill="rgba(255, 255, 255, 0.6)" d="M606.8,98v413.3c0,54.1-43.9,98-98,98H98c-54.1,0-98-43.9-98-98V98C0,43.9,43.9,0,98,0h410.8
				C562.9,0,606.8,43.9,606.8,98z M469.2,385.4c0-23.8-5.8-43.8-17.4-60.2c-5.8-8.2-12.8-15.1-20.9-20.7c-8.2-5.6-17.5-9.9-28.1-13
				c16.5-6.2,29.1-15.8,37.8-28.6c8.7-13,13-28.7,13-47c0-34.9-11.9-60.3-35.8-76.1c-23.7-15.8-62-23.8-114.9-23.8H155.2v377.4
				h163.2c50.8,0,88.6-8.9,113.4-26.8C456.7,449,469.2,421.8,469.2,385.4zM356,340.9c9.9,8.1,14.8,20.3,14.8,36.7c0,16.7-5,29.1-15.1,37.4c-9.9,8.3-24.7,12.4-44.5,12.4h-57.7v-98.9
				h57.7C331.2,328.5,346.1,332.7,356,340.9zM343.2,192.8c8,6.7,12,16.6,12,29.6c0,13.2-4,23.1-12,29.8c-8,6.7-19.8,10.1-35.3,10.1h-54.4v-79.9H308
				C323.5,182.4,335.2,185.9,343.2,192.8z"/>
</svg>
