<svg xmlns="http://www.w3.org/2000/svg" viewBox="0 0 127.96 180.62">
	<title>HTML5 Logo</title>
	<path fill="rgba(255, 255, 255, 0.6)" d="M30.12 0H49.52V8.11H38.23V16.23H49.52V24.34H31.12M53.4 0H72.8V7.06H61.51V8.47H72.8V24.69H53.4V17.29H64.69V15.88H53.4M76.68 0H96.09V7.06H84.8V8.47H96.09V24.69H76.68V17.29H87.97V15.88H76.68"/>
	<path fill="rgba(255, 255, 255, 0.6)" d="M0 35.5H127.96L116.31 166.09L63.98 180.62L11.65 166.11M63.98 46.18V169.52L106.33 157.78L116.29 46.18M23.81 62.2L25.27 78.22H63.98V62.2M26.7 94.62L28.13 110.64H63.98V94.62M28.85 118.65L31.09 143.8L63.98 152.91V136.24L46.07 131.43L44.93 118.65"/>
	<path fill="rgba(255, 255, 255, 0.2)" d="M63.98 46.18H116.29L106.33 157.78L63.98 169.52M63.98 62.2V78.22H86.56L85.1 94.62H63.98V110.64H83.71L81.85 131.42L63.98 136.24V63.98 152.91L96.82 143.8L104.11 62.2"/>
	<path fill="rgba(255, 255, 255, 0.2)" d="M23.81 62.2L25.27 78.22H63.98V62.2M26.7 94.62L28.13 110.64H63.98V94.62M28.85 118.65L31.09 143.8L63.98 152.91V136.24L46.07 131.43L44.93 118.65"/>
	<path fill="rgba(255, 255, 255, 0.6)" d="M63.98 62.2V78.22H86.56L85.1 94.62H63.98V110.64H83.71L81.85 131.42L63.98 136.24V63.98 152.91L96.82 143.8L104.11 62.2"/>
</svg>