<svg xmlns="http://www.w3.org/2000/svg" width="273" height="273" viewBox="0 0 273 273"><title>dt_logo</title><desc>Handmade. Copyright by Denys Terelia.</desc><g fill="none"><path d="M20 0L253 0Q273 0 273 20L273 253Q273 273 253 273L20 273Q0 273 0 253L0 20Q0 0 20 0ZM52 125L52 194Q52 198 56 198L79 198Q83 198 83 194L83 125Q83 121 79 121L56 121Q52 121 52 125ZM98 79L98 194Q98 198 102 198L125 198Q129 198 129 194L129 79Q129 75 125 75L102 75Q98 75 98 79ZM144 79L144 194Q144 198 148 198L171 198Q175 198 175 194L175 79Q175 75 171 75L148 75Q144 75 144 79ZM190 125L190 148Q190 152 194 152L217 152Q221 152 221 148L221 125Q221 121 217 121L194 121Q190 121 190 125Z" fill="#FDCD3D"/></g></svg>