<svg xmlns="http://www.w3.org/2000/svg" viewBox="0 0 127.96 180.62">
	<title>HTML5 Logo</title>
	<path fill="rgba(255, 255, 255, 0.6)" d="M11.91 0H20.05V8.04H27.49V0H35.64V24.36H27.49V16.2H20.05V24.36H11.91M39.17 0H61.65V8.08H54.48V24.36H46.34V8.08H39.17M65.22 0H73.71L78.93 8.56L84.15 0H92.64V24.36H84.53V12.28L78.93 20.94L73.19 12.28V24.36H65.22M96.69 0H104.84V16.31H116.28V24.36H96.69"/>
	<path fill="rgba(255, 255, 255, 0.6)" d="M0 35.5H127.96L116.31 166.09L63.98 180.62L11.65 166.11M63.98 46.18V169.52L106.33 157.78L116.29 46.18M23.81 62.2L28.13 110.64H63.98V94.62H42.78L41.32 78.22H63.98V62.2M28.85 118.65L31.09 143.8L63.98 152.91V136.24L46.07 131.43L44.93 118.65"/>
	<path fill="rgba(255, 255, 255, 0.2)" d="M63.98 46.18H116.29L106.33 157.78L63.98 169.52M63.98 62.2V78.22H102.57L104.06 62.2M63.98 94.62V110.64H83.65L81.79 131.42L63.98 136.24V152.91L96.77 143.8L101.16 94.62"/>
	<path fill="rgba(255, 255, 255, 0.2)" d="M23.81 62.2L28.13 110.64H63.98V94.62H42.78L41.32 78.22H63.98V62.2M28.85 118.65L31.09 143.8L63.98 152.91V136.24L46.07 131.43L44.93 118.65"/>
	<path fill="rgba(255, 255, 255, 0.6)" d="M63.98 62.2V78.22H102.57L104.06 62.2M63.98 94.62V110.64H83.65L81.79 131.42L63.98 136.24V152.91L96.77 143.8L101.16 94.62"/>
</svg>