<svg xmlns="http://www.w3.org/2000/svg" viewBox="0 0 256 256">
  <path fill="rgba(255, 255, 255, 0.6)" d="M128 0H0v256h256V0H128zm18.7 139.3h-33.4V234H89.9v-94.6H56.5l.1-10.5.1-10.4 44.7-.1c24.6 0 44.9 0 45 .2.2.1.3 4.9.3 10.6v10.1zm87.1 75.2c-4.1 10.6-14.1 17.9-28.3 20.3-4.4.8-14.8.7-19.5-.2-10.3-1.8-20-6.9-26-13.6-2.4-2.6-6.9-9.4-6.7-9.9.1-.2 1.2-.8 2.4-1.5 1.1-.7 5.4-3.1 9.5-5.5l7.4-4.3 1.5 2.3c2.2 3.3 6.9 7.8 9.7 9.3 8.2 4.3 19.4 3.7 24.9-1.3 2.4-2.2 3.3-4.4 3.3-7.7 0-3-.4-4.3-1.9-6.5-2-2.8-6.1-5.2-17.6-10.2-13.2-5.7-18.9-9.2-24.1-14.8-3-3.3-5.9-8.5-7-12.8-1-3.6-1.2-12.7-.4-16.3 2.7-12.8 12.4-21.7 26.3-24.3 4.5-.9 15-.5 19.4.6 6.5 1.6 11.5 4.5 16 9.2 2.4 2.5 5.9 7.1 6.1 8.2.1.3-11.1 7.8-17.8 12-.2.2-1.2-.9-2.3-2.5-3.3-4.8-6.7-6.9-12-7.2-7.8-.5-12.8 3.5-12.7 10.3 0 2 .3 3.2 1.1 4.8 1.7 3.5 4.9 5.6 14.8 10 18.3 7.9 26.2 13.1 31 20.5 5.4 8.2 6.6 21.3 2.9 31.1z"/>
</svg>
